<?xml version="1.0" standalone="no"?>
<!DOCTYPE svg PUBLIC "-//W3C//DTD SVG 20010904//EN"
 "http://www.w3.org/TR/2001/REC-SVG-20010904/DTD/svg10.dtd">
<svg version="1.0" xmlns="http://www.w3.org/2000/svg"
 width="1024.000000pt" height="1024.000000pt" viewBox="0 0 1024.000000 1024.000000"
 preserveAspectRatio="xMidYMid meet">

<g transform="translate(0.000000,1024.000000) scale(0.100000,-0.100000)"
fill="#000000" stroke="none">
<path d="M0 5120 l0 -5120 5120 0 5120 0 0 5120 0 5120 -5120 0 -5120 0 0
-5120z m4860 3221 c28 -20 53 -84 45 -112 -12 -36 -56 -78 -89 -84 -82 -16
-148 54 -126 134 22 81 102 111 170 62z m315 -356 c386 -61 805 -229 1115
-449 454 -321 831 -804 1027 -1316 40 -105 103 -317 103 -348 0 -10 -151 -12
-736 -10 l-736 3 -75 123 c-41 68 -73 126 -70 128 3 3 83 -4 180 -15 153 -19
233 -21 666 -21 l492 0 -7 23 c-16 52 -148 317 -206 413 l-62 104 -398 0
c-235 0 -398 -4 -398 -9 0 -5 35 -34 78 -64 200 -140 251 -220 183 -288 -23
-22 -39 -29 -69 -29 -34 0 -54 10 -124 62 -453 336 -1013 512 -1488 468 -425
-39 -836 -194 -1180 -445 -106 -77 -120 -85 -162 -85 -44 0 -74 22 -88 64 -20
63 4 91 199 235 l124 91 -421 0 -420 0 -40 -62 c-21 -35 -70 -122 -108 -194
l-69 -132 -107 2 c-59 0 -108 4 -108 7 0 35 97 255 165 374 455 789 1206 1284
2100 1385 118 13 521 4 640 -15z m2580 -1169 c40 -17 75 -68 75 -111 0 -31
-21 -70 -50 -92 -18 -15 -112 -17 -126 -3 -5 5 -67 11 -138 12 l-129 3 -48 85
c-27 47 -49 91 -49 98 0 10 40 13 195 11 108 -1 198 1 202 5 10 10 31 7 68 -8z
m-5472 -3 c3 -4 -18 -50 -46 -100 l-51 -93 -185 0 c-136 0 -197 -4 -227 -15
-103 -35 -193 56 -148 150 29 61 36 62 360 64 161 1 295 -2 297 -6z m673 -417
c27 -27 34 -42 34 -74 0 -99 -123 -146 -194 -75 -21 20 -26 35 -26 72 1 70 41
110 114 111 30 0 45 -7 72 -34z m3792 18 c51 -36 67 -113 31 -157 -65 -83
-199 -39 -199 65 0 56 51 108 107 108 21 0 49 -7 61 -16z m-4890 -10 c122 -3
222 -8 222 -12 0 -5 -15 -46 -34 -93 l-34 -84 -199 -5 c-109 -3 -206 -10 -215
-14 -25 -11 -84 11 -108 41 -13 17 -20 41 -20 70 0 38 5 50 35 80 33 33 38 35
83 28 26 -4 147 -9 270 -11z m6231 1 c37 -19 65 -77 57 -119 -11 -60 -88 -106
-142 -85 -14 5 -116 9 -228 9 l-202 0 -41 93 -42 92 249 5 c137 3 252 8 256
13 12 12 63 8 93 -8z m-3043 -40 c419 -106 736 -463 785 -882 15 -126 6 -297
-21 -398 -28 -108 -116 -285 -189 -382 -214 -284 -582 -436 -950 -394 -446 52
-777 334 -908 771 -26 88 -28 107 -28 265 0 146 4 181 23 250 112 396 374 660
757 766 165 45 364 46 531 4z m-1286 -262 c0 -4 -26 -48 -58 -98 -33 -49 -66
-102 -76 -117 l-16 -28 -272 0 -272 0 44 46 c25 25 83 75 130 110 80 60 88 64
140 65 30 0 107 6 170 13 135 16 210 19 210 9z m-1427 -34 c67 -35 91 -92 63
-151 -41 -86 -168 -91 -211 -8 -19 37 -19 63 0 101 29 56 99 83 148 58z m567
-19 c-21 -30 -183 -182 -200 -188 -5 -2 -26 12 -46 31 -31 28 -38 42 -38 71 0
40 28 84 65 103 15 8 66 13 132 13 l108 0 -21 -30z m-1681 -310 c22 -11 53
-36 69 -56 l30 -36 1105 3 c608 2 1108 1 1112 -3 4 -3 0 -48 -9 -99 -9 -51
-16 -96 -16 -101 0 -4 -492 -8 -1092 -8 l-1093 0 -27 -34 c-96 -120 -293 -93
-359 49 -81 176 111 372 280 285z m7577 1 c138 -63 167 -244 58 -355 -86 -86
-236 -77 -310 19 l-26 35 -1021 2 -1021 3 -16 103 c-9 56 -14 102 -11 102 3 1
470 1 1036 1 l1031 -1 34 37 c67 70 163 92 246 54z m-2571 -158 c33 -133 37
-332 9 -515 l-7 -48 -103 0 c-57 0 -104 3 -104 8 0 4 7 41 16 82 30 133 23
398 -12 523 -5 15 4 17 89 17 l95 0 17 -67z m-3575 -362 l865 -6 6 -55 c3 -30
9 -74 13 -97 l8 -42 -894 -4 c-491 -3 -902 -5 -913 -6 -71 -6 -119 94 -81 168
19 36 73 64 106 54 14 -4 414 -9 890 -12z m5527 -25 c24 -26 33 -45 33 -71 0
-43 -22 -90 -47 -100 -17 -6 -1704 -7 -1711 -1 -1 2 3 47 9 100 l12 96 781 0
c517 0 786 4 796 11 30 20 93 3 127 -35z m-6990 -291 c39 -12 62 -27 96 -65
l46 -51 1148 1 1148 2 35 -60 c130 -221 349 -417 573 -515 200 -86 485 -131
692 -108 220 24 429 99 597 212 129 88 312 288 384 418 l27 51 104 0 c56 0
103 -3 103 -7 0 -15 -92 -188 -135 -254 -140 -216 -409 -434 -643 -519 -237
-87 -456 -119 -687 -100 -241 19 -410 62 -590 150 -226 110 -389 246 -538 446
l-62 84 -1087 0 -1088 0 -16 -25 c-8 -13 -39 -36 -67 -50 -93 -46 -187 -28
-255 49 -100 114 -42 301 106 346 40 12 53 12 109 -5z m7622 -15 c120 -61 146
-221 55 -329 -80 -95 -238 -96 -317 -1 l-26 30 -1105 0 c-608 0 -1106 3 -1106
7 0 4 16 49 36 100 l37 92 1064 3 1064 3 32 36 c41 46 58 58 104 75 47 17 110
11 162 -16z m-6394 -516 c14 -15 25 -31 25 -37 0 -5 20 -52 44 -104 l45 -93
512 0 512 1 86 -59 c254 -176 550 -296 856 -349 141 -24 466 -24 590 0 156 31
267 64 390 116 l119 52 73 -73 c40 -40 73 -76 73 -80 0 -4 -28 -22 -62 -39
-496 -251 -1093 -275 -1646 -67 -141 52 -356 163 -477 243 l-97 65 -414 0
c-228 0 -414 -3 -414 -7 0 -15 74 -130 140 -218 73 -97 275 -324 312 -349 19
-14 61 -16 270 -16 l247 0 30 43 c35 52 62 71 121 87 80 22 178 -21 222 -96
l20 -34 923 0 923 0 86 -92 85 -93 -1011 -3 -1010 -2 -50 -42 c-97 -81 -197
-80 -291 2 l-45 40 -132 0 c-101 0 -131 -3 -128 -12 6 -18 182 -136 292 -195
119 -65 332 -153 476 -196 173 -52 415 -97 524 -97 l56 0 0 118 c0 99 3 122
20 150 26 43 63 57 113 42 63 -19 77 -53 77 -192 0 -64 4 -119 9 -123 15 -9
194 14 331 42 244 50 423 111 649 225 l154 77 79 -71 c43 -39 78 -75 78 -79 0
-13 -178 -115 -293 -168 -350 -164 -660 -238 -1033 -248 -456 -13 -847 74
-1269 282 -222 109 -378 218 -616 432 -327 292 -600 688 -714 1037 -34 104
-37 118 -25 146 26 62 121 82 165 34z m4892 6 c42 -25 48 -53 28 -131 -40
-152 -200 -509 -229 -509 -6 0 -46 35 -88 78 -71 71 -76 78 -62 96 22 30 17
36 -25 36 -35 0 -45 6 -90 56 -54 59 -60 77 -35 112 14 21 22 22 134 22 l120
0 19 38 c10 20 33 72 51 115 17 42 42 84 53 92 30 21 86 19 124 -5z m-1214
-334 c-20 -23 -55 -58 -77 -79 l-40 -38 -66 66 -65 66 78 76 78 76 64 -63 64
-64 -36 -40z m-4185 96 l133 -7 39 -90 38 -90 -166 -6 c-92 -4 -183 -10 -203
-14 -93 -18 -166 75 -127 161 16 35 83 66 123 58 17 -3 90 -9 163 -12z m6044
-21 c40 -45 39 -108 -1 -153 -26 -29 -34 -33 -78 -30 -26 1 -128 6 -225 10
l-176 7 38 90 38 90 135 5 c75 3 139 9 144 13 4 5 28 7 53 4 33 -4 51 -13 72
-36z m-726 -803 c753 -751 786 -785 822 -857 36 -73 37 -78 37 -186 0 -98 -3
-116 -27 -167 -37 -79 -98 -142 -177 -181 -62 -30 -72 -32 -171 -31 -170 0
-238 37 -398 218 -115 129 -471 500 -1011 1051 -210 215 -380 395 -379 401 3
10 508 534 516 534 1 0 356 -352 788 -782z m-2368 -1054 c91 -59 46 -209 -63
-209 -120 0 -149 162 -39 220 31 17 65 13 102 -11z"/>
<path d="M4525 7774 c-405 -55 -772 -192 -1107 -412 -177 -117 -385 -307 -512
-467 l-56 -70 565 -3 c532 -2 567 -1 612 17 138 54 412 115 571 127 l92 7 0
59 0 59 -322 -4 c-178 -3 -342 -8 -366 -12 -78 -13 -132 30 -132 107 0 78 78
135 151 109 21 -7 139 -11 350 -11 l319 0 0 255 0 255 -32 -1 c-18 -1 -78 -7
-133 -15z"/>
<path d="M4904 7777 c-2 -7 -3 -120 -2 -252 l3 -240 347 -3 347 -2 48 48 c96
96 219 87 307 -21 29 -37 31 -44 31 -122 0 -78 -2 -86 -31 -121 -49 -61 -78
-77 -143 -82 -77 -6 -124 11 -175 62 l-41 41 -345 0 -345 0 0 -55 0 -54 125
-13 c157 -15 286 -43 466 -99 l142 -44 536 0 c295 0 536 3 536 6 0 13 -76 101
-185 213 -300 309 -646 520 -1058 645 -126 38 -331 81 -437 91 -36 4 -78 8
-93 10 -16 2 -30 -2 -33 -8z"/>
<path d="M4641 6129 c-159 -31 -309 -107 -412 -209 -165 -163 -250 -388 -236
-625 12 -214 112 -411 279 -552 205 -173 521 -229 789 -138 232 79 427 292
495 540 25 93 30 266 10 366 -75 370 -405 632 -789 628 -51 -1 -112 -5 -136
-10z m-56 -337 c135 -66 157 -253 40 -349 -106 -87 -258 -54 -319 69 -29 58
-31 79 -14 146 16 64 88 136 149 150 51 11 101 6 144 -16z"/>
</g>
</svg>
